<svg width="40" height="40" viewBox="0 0 40 40" fill="none" xmlns="http://www.w3.org/2000/svg">
<path d="M20.196 39.4C15.1042 39.3978 10.2217 37.3736 6.62196 33.7723C3.02228 30.1711 1.00012 25.2877 1.00012 20.1959V20.1959C1.00012 15.1048 3.02254 10.2223 6.62246 6.62234C10.2224 3.02242 15.1049 1 20.196 1C22.7175 0.998916 25.2146 1.49463 27.5445 2.45883C29.8744 3.42303 31.9915 4.83681 33.7749 6.61942C35.5582 8.40203 36.9729 10.5185 37.9381 12.848C38.9033 15.1775 39.4001 17.6743 39.4001 20.1959V20.1959C39.4001 25.2891 37.3768 30.1738 33.7754 33.7753C30.1739 37.3767 25.2892 39.4 20.196 39.4V39.4Z" stroke="#5F6AC0" stroke-miterlimit="10"/>
<g opacity="0.8">
<path d="M20.1957 12.5443C22.6747 12.5443 22.9887 12.5443 23.9721 12.6021C24.5649 12.6073 25.1522 12.7164 25.7074 12.9244C26.1101 13.0733 26.4743 13.3105 26.7734 13.6185C27.0825 13.9216 27.3221 14.2881 27.4758 14.6928C27.6796 15.2491 27.7886 15.8357 27.798 16.4281C27.798 17.4114 27.8476 17.7089 27.8476 20.1962C27.8476 22.6835 27.8476 22.9892 27.798 23.9726C27.7886 24.565 27.6796 25.1516 27.4758 25.7079C27.3162 26.1071 27.0771 26.4696 26.7731 26.7736C26.4692 27.0776 26.1066 27.3166 25.7074 27.4762C25.1511 27.6801 24.5645 27.7891 23.9721 27.7985C22.9887 27.7985 22.6913 27.8481 20.1957 27.8481C17.7002 27.8481 17.4109 27.8481 16.4276 27.7985C15.8352 27.7891 15.2486 27.6801 14.6923 27.4762C14.2931 27.3166 13.9305 27.0776 13.6265 26.7736C13.3226 26.4696 13.0835 26.1071 12.9239 25.7079C12.72 25.1516 12.6111 24.565 12.6016 23.9726C12.5603 22.9892 12.5521 22.6917 12.5521 20.1962C12.5521 17.7006 12.5521 17.4114 12.6016 16.4281C12.6111 15.8357 12.72 15.2491 12.9239 14.6928C13.0776 14.2881 13.3172 13.9216 13.6263 13.6185C13.9254 13.3105 14.2896 13.0733 14.6923 12.9244C15.2474 12.7164 15.8348 12.6073 16.4276 12.6021C17.4109 12.6021 17.7084 12.5443 20.1957 12.5443ZM20.1957 10.8916C17.6671 10.8916 17.3448 10.8916 16.3532 10.9495C15.5795 10.9619 14.8136 11.1072 14.0891 11.3791C13.4697 11.6226 12.9071 11.9912 12.4365 12.4618C11.9659 12.9324 11.5974 13.4949 11.3539 14.1143C11.0811 14.8386 10.9358 15.6046 10.9242 16.3785C10.8746 17.3701 10.8663 17.6924 10.8663 20.221C10.8663 22.7496 10.8663 23.0801 10.9242 24.0717C10.9366 24.8455 11.0819 25.6114 11.3539 26.3359C11.5974 26.9553 11.9659 27.5179 12.4365 27.9885C12.9071 28.4591 13.4697 28.8276 14.0891 29.0711C14.8147 29.339 15.5799 29.4842 16.3532 29.5008C17.3448 29.5504 17.6671 29.5586 20.1957 29.5586C22.7243 29.5586 23.0548 29.5586 24.0465 29.5008C24.8198 29.4842 25.585 29.339 26.3106 29.0711C26.93 28.8276 27.4926 28.4591 27.9632 27.9885C28.4338 27.5179 28.8023 26.9553 29.0458 26.3359C29.3177 25.6114 29.4631 24.8455 29.4755 24.0717C29.5251 23.0801 29.5333 22.7578 29.5333 20.221C29.5333 17.6841 29.5333 17.3701 29.4755 16.3785C29.4639 15.6046 29.3185 14.8386 29.0458 14.1143C28.8023 13.4949 28.4338 12.9324 27.9632 12.4618C27.4926 11.9912 26.93 11.6226 26.3106 11.3791C25.5861 11.1072 24.8202 10.9619 24.0465 10.9495C23.0548 10.8999 22.7326 10.8916 20.1957 10.8916Z" fill="#5F6AC0"/>
<path d="M20.1957 15.4033C19.2478 15.4033 18.3212 15.6844 17.533 16.211C16.7448 16.7377 16.1305 17.4862 15.7678 18.362C15.405 19.2377 15.3101 20.2014 15.495 21.1311C15.68 22.0608 16.1364 22.9148 16.8067 23.5851C17.477 24.2554 18.331 24.7118 19.2607 24.8968C20.1904 25.0817 21.1541 24.9868 22.0298 24.624C22.9056 24.2613 23.6541 23.647 24.1808 22.8588C24.7074 22.0706 24.9885 21.144 24.9885 20.1961C24.9885 18.925 24.4835 17.7059 23.5847 16.8071C22.6859 15.9083 21.4668 15.4033 20.1957 15.4033ZM20.1957 23.3114C19.5796 23.3114 18.9773 23.1287 18.465 22.7864C17.9526 22.444 17.5534 21.9575 17.3176 21.3883C17.0818 20.819 17.0201 20.1926 17.1403 19.5883C17.2605 18.984 17.5572 18.4289 17.9929 17.9932C18.4286 17.5576 18.9837 17.2608 19.588 17.1406C20.1923 17.0204 20.8187 17.0821 21.3879 17.3179C21.9571 17.5537 22.4437 17.953 22.786 18.4653C23.1283 18.9776 23.311 19.5799 23.311 20.1961C23.311 20.6052 23.2304 21.0103 23.0739 21.3883C22.9173 21.7662 22.6879 22.1097 22.3986 22.3989C22.1093 22.6882 21.7659 22.9177 21.3879 23.0742C21.0099 23.2308 20.6048 23.3114 20.1957 23.3114Z" fill="#5F6AC0"/>
<path d="M26.2612 15.2214C26.2612 15.4443 26.1948 15.6622 26.0706 15.8474C25.9464 16.0326 25.7699 16.1766 25.5635 16.2611C25.3572 16.3457 25.1304 16.3669 24.912 16.3222C24.6935 16.2775 24.4933 16.1688 24.3368 16.01C24.1804 15.8512 24.0746 15.6494 24.0332 15.4303C23.9917 15.2112 24.0163 14.9848 24.1039 14.7797C24.1915 14.5747 24.3381 14.4003 24.5251 14.2788C24.7121 14.1574 24.931 14.0943 25.1539 14.0975C25.452 14.0975 25.7378 14.2159 25.9486 14.4267C26.1593 14.6374 26.2777 14.9233 26.2777 15.2214" fill="#5F6AC0"/>
</g>
</svg>
