<svg width="40" height="40" viewBox="0 0 40 40" fill="none" xmlns="http://www.w3.org/2000/svg">
<path d="M20.1958 39.4C15.1039 39.3978 10.2214 37.3736 6.62172 33.7723C3.02203 30.1711 0.999877 25.2877 0.999878 20.1959V20.1959C0.999878 15.1048 3.02229 10.2223 6.62222 6.62234C10.2221 3.02242 15.1047 1 20.1958 1C22.7173 0.998916 25.2143 1.49463 27.5442 2.45883C29.8741 3.42303 31.9912 4.83681 33.7746 6.61942C35.558 8.40203 36.9727 10.5185 37.9379 12.848C38.9031 15.1775 39.3999 17.6743 39.3999 20.1959V20.1959C39.3999 25.2891 37.3766 30.1738 33.7751 33.7753C30.1736 37.3767 25.289 39.4 20.1958 39.4V39.4Z" stroke="#5F6AC0" stroke-miterlimit="10"/>
<g opacity="0.8" clip-path="url(#clip0_1_7258)">
<path d="M17.7571 23.6033L20.3221 25.5248L24.5159 28.6283C25.2851 29.0614 25.827 28.8333 26.0344 27.9132L28.7872 14.8788L28.788 14.878C29.032 13.7291 28.3768 13.2798 27.6274 13.5617L11.4466 19.8216C10.3423 20.2548 10.3591 20.8769 11.2589 21.1587L15.3957 22.4589L25.0046 16.3833C25.4568 16.0807 25.868 16.2482 25.5298 16.5507L17.7571 23.6033Z" fill="#5F6AC0"/>
</g>
<defs>
<clipPath id="clip0_1_7258">
<rect width="18.24" height="18.24" fill="white" transform="translate(10.5999 10.6001)"/>
</clipPath>
</defs>
</svg>
