<svg width="35" height="15" viewBox="0 0 35 15" fill="none" xmlns="http://www.w3.org/2000/svg">
<path d="M8.22698 14.3847C4.266 14.3847 1.04346 11.1621 1.04346 7.20112C1.43808 -2.3289 15.0174 -2.32604 15.4106 7.20117C15.4106 11.1621 12.188 14.3847 8.22698 14.3847ZM8.22698 1.27991C4.96203 1.27991 2.30581 3.93617 2.30581 7.20112C2.63107 15.0564 13.8241 15.0541 14.1482 7.20108C14.1482 3.93617 11.4919 1.27991 8.22698 1.27991Z" fill="#FF675D"/>
<path d="M25.9694 14.3847C22.0083 14.3847 18.7858 11.1621 18.7858 7.20112C19.1804 -2.32881 32.7597 -2.32612 33.1529 7.20117C33.1529 11.1621 29.9303 14.3847 25.9694 14.3847ZM25.9694 1.27991C22.7044 1.27991 20.0481 3.93617 20.0481 7.20112C20.3734 15.0564 31.5665 15.0542 31.8905 7.20108C31.8905 3.93617 29.2343 1.27991 25.9694 1.27991Z" fill="#FF675D"/>
<path d="M14.2016 5.13922C13.7725 5.14655 13.4504 4.68869 13.6105 4.28667C14.8368 1.07058 19.3617 1.06064 20.5853 4.28648C20.7076 4.61283 20.5422 4.97662 20.2157 5.09891C19.8893 5.22137 19.5255 5.0558 19.4032 4.72932C19.0344 3.74517 18.0898 3.09939 17.048 3.11899C16.052 3.13909 15.1456 3.78612 14.7928 4.72907C14.6979 4.98266 14.4573 5.13922 14.2016 5.13922Z" fill="#FF675D"/>
<path d="M33.5646 5.13907H31.944C31.5954 5.13907 31.3129 4.85648 31.3129 4.50789C31.3129 4.1593 31.5954 3.87671 31.944 3.87671H33.5646C34.3997 3.90535 34.4003 5.11022 33.5646 5.13907Z" fill="#FF675D"/>
<path d="M2.2517 5.13907H0.631179C0.282549 5.13907 0 4.85648 0 4.50789C0 4.1593 0.282549 3.87671 0.631179 3.87671H2.2517C3.08679 3.90535 3.08742 5.11022 2.2517 5.13907Z" fill="#FF675D"/>
<path d="M10.8663 4.48146C10.633 4.85492 10.141 4.9685 9.76758 4.73516C8.89286 4.13909 9.69371 2.85794 10.6126 3.38275C10.9861 3.61609 11.0996 4.108 10.8663 4.48146Z" fill="#FF675D"/>
<path d="M4.67235 6.78881C4.25962 6.79434 3.94272 6.37548 4.06658 5.97928C4.50182 4.5005 5.70246 3.3543 7.19994 2.98801C7.53863 2.905 7.88019 3.11252 7.96303 3.45116C8.04587 3.78976 7.83852 4.1314 7.49992 4.2142C6.43776 4.47399 5.58625 5.28688 5.27764 6.33564C5.19669 6.61059 4.94513 6.78881 4.67235 6.78881Z" fill="#FF675D"/>
<path d="M22.4146 6.78881C22.0019 6.79439 21.685 6.37548 21.8089 5.97924C22.2442 4.50046 23.4448 3.3543 24.9423 2.98801C25.281 2.905 25.6225 3.11252 25.7054 3.45116C25.7882 3.78976 25.5809 4.1314 25.2423 4.2142C24.1801 4.47399 23.3286 5.28692 23.0198 6.33568C22.939 6.61059 22.6874 6.78881 22.4146 6.78881Z" fill="#FF675D"/>
</svg>
