<svg width="40" height="40" viewBox="0 0 40 40" fill="none" xmlns="http://www.w3.org/2000/svg">
<path d="M20.1998 39.4C15.1076 39.4 10.224 37.3772 6.62331 33.7765C3.02261 30.1758 0.999756 25.2922 0.999756 20.2V20.2C0.999756 15.1078 3.02261 10.2243 6.62331 6.62355C10.224 3.02285 15.1076 1 20.1998 1V1C25.2919 1 30.1755 3.02285 33.7762 6.62355C37.3769 10.2243 39.3998 15.1078 39.3998 20.2V20.2C39.3998 22.7214 38.9031 25.2181 37.9382 27.5475C36.9734 29.877 35.5591 31.9936 33.7762 33.7765C31.9933 35.5593 29.8767 36.9736 27.5473 37.9385C25.2178 38.9034 22.7211 39.4 20.1998 39.4V39.4Z" stroke="#5F6AC0" stroke-miterlimit="10"/>
<path opacity="0.8" d="M17.6044 30.4902H21.737V20.1092H24.6215L24.9356 16.6378H21.737V14.6624C21.737 13.8359 21.894 13.5218 22.6875 13.5218H24.9356V9.91821H22.0593C18.9764 9.91821 17.5879 11.2737 17.5879 13.869V16.6461H15.4307V20.1588H17.5879L17.6044 30.4902Z" fill="#5F6AC0"/>
</svg>
